# xmcd
#
# Track frame offsets: 
#        182
#        17492
#        33907
#        48497
#        70702
#        86927
#        99662
#        112067
#        128130
#        143477
#        156907
#        170410
#        183762
#
# Disc length: 2650 seconds
#
# Revision: 0
# Processed by: cddbd v1.5.2PL0 Copyright (c) Steve Scherf et al.
# Submitted via: ExactAudioCopyFreeDBPlugin 1.0
#
DISCID=a70a580d
DTITLE=Trio Klaus and Klaus - Von der Nordseeküste
DYEAR=1999
DGENRE=Schlager
TTITLE0=Der Alpenexpress
TTITLE1=Gnade
TTITLE2=Kille, Kille
TTITLE3=Hit-Mix-Medley
TTITLE4=An der Nordseeküste
TTITLE5=Du bist mein ganzes Pferd
TTITLE6=Laß das, ich haß das
TTITLE7=Kann Tanzen Sünde sein
TTITLE8=Jetzt geht es ab nach Mallorca
TTITLE9=Arenal-Medley
TTITLE10=Doppelter Schiffbruch
TTITLE11=Wissen Sie wo der Kudamm ist?
TTITLE12=Barry Ryan and Trio Klaus and Klaus - Zeit macht nur vor dem Teuf
TTITLE12=el halt
EXTD=
EXTT0=
EXTT1=
EXTT2=
EXTT3=
EXTT4=
EXTT5=
EXTT6=
EXTT7=
EXTT8=
EXTT9=
EXTT10=
EXTT11=
EXTT12=
PLAYORDER=
